<?xml version="1.0" encoding="UTF-8"?>
<!DOCTYPE svg PUBLIC "-//W3C//DTD SVG 1.1//EN" "http://www.w3.org/Graphics/SVG/1.1/DTD/svg11.dtd">
<svg xmlns="http://www.w3.org/2000/svg" xml:space="preserve" width="210mm" height="210mm" version="1.1" style="shape-rendering:geometricPrecision; text-rendering:geometricPrecision; image-rendering:optimizeQuality; fill-rule:evenodd; clip-rule:evenodd"
viewBox="0 0 21000 21000"
 xmlns:xlink="http://www.w3.org/1999/xlink">
 <defs>
  <style type="text/css">
   <![CDATA[
    .fil3 {fill:#092F29}
    .fil0 {fill:#193A6E}
    .fil2 {fill:#FEFEFE}
    .fil1 {fill:white}
   ]]>
  </style>
 </defs>
 <g id="Слой_x0020_1">
  <metadata id="CorelCorpID_0Corel-Layer"/>
  <g id="_773496256">
   <path class="fil0" d="M5197 16300l10451 0c59,0 43,25 78,70 21,27 50,61 74,86l1373 1588c29,36 40,51 71,88l587 675c56,86 96,92 149,183l-15025 0c15,-48 222,-284 271,-343 25,-30 42,-47 68,-79l205 -258c95,-115 181,-221 278,-334l279 -346c97,-117 183,-218 278,-332l761 -938c33,-42 34,-60 102,-60zm14062 -13555l2 15358c-48,-26 -138,-119 -183,-158 -60,-51 -121,-102 -175,-157l-256 -235c-83,-53 -365,-319 -442,-396l-352 -312c-118,-100 -214,-223 -351,-312 -97,-64 -243,-230 -346,-318 -64,-55 -113,-98 -177,-155l-258 -234c-32,-34 -51,-57 -86,-86l-262 -230c-15,-13 -22,-14 -44,-36 -41,-40 -24,1 -32,-61l0 -7650c0,-194 -13,-2187 0,-2325 8,-87 172,-203 245,-248l1137 -1028c111,-93 208,-200 349,-314 130,-105 346,-333 425,-398 198,-160 382,-358 533,-464 41,-29 55,-49 89,-83 52,-53 125,-113 184,-158zm-17552 15387l-2 -15340c49,18 322,288 377,344 62,63 116,116 179,178 65,65 136,115 197,176l740 720c123,125 244,238 373,357 66,61 117,127 177,182 23,21 29,22 53,42l699 667c65,65 181,143 181,193l0 9655c0,71 -140,149 -177,183 -67,61 -108,115 -182,176l-1667 1588c-34,30 -63,47 -103,83 -38,35 -47,62 -89,96l-381 350c-62,61 -124,112 -184,174 -67,68 -115,115 -191,176zm13626 -8045l0 1753 0 3341 -9700 0 0 -9498 9703 0 -3 4404zm249 -5404c-2607,3 -5215,0 -7822,0l-2444 0c-164,2 -108,18 -174,-79l-882 -1071c-39,-48 -58,-88 -98,-140l-332 -400c-44,-53 -60,-86 -101,-137 -116,-147 -364,-424 -440,-542 -56,-86 -399,-465 -424,-535l15203 6 -267 308c-160,216 -202,235 -351,406 -56,65 -99,121 -157,189l-935 1096c-25,30 -52,63 -79,94l-490 559c-84,80 -86,127 -207,246zm-15591 16307l20996 0 0 -20996 -20996 0 0 20996z"/>
   <path class="fil1" d="M10784 7298c77,-140 206,-281 298,-397l324 -353c174,-173 481,-453 827,-526 442,-92 786,146 964,367 246,306 267,621 130,1039 209,-32 282,-80 559,12 353,118 758,481 1244,662 7,80 -33,93 -72,132l-273 284c-223,-29 -808,-464 -1070,-575 -240,-102 -432,-92 -632,43 -99,66 -138,127 -215,196 -84,76 -136,131 -206,203 28,61 478,481 564,565 100,99 189,192 278,280 338,335 338,241 100,485 -214,220 -164,212 -364,18l-1476 -1459c-113,-110 -217,-211 -330,-321 -93,-92 -622,-600 -650,-655zm4549 4542c-1860,0 -3762,12 -5621,0 -24,-1 -75,-4 -94,-3 -62,4 -43,-14 -60,43 5,38 1,19 26,61l100 179c41,81 78,172 107,264 455,1450 -1143,2844 -2616,1887 -476,-309 -1158,-1060 -1027,-1984 82,-573 496,-1086 964,-1308 215,-103 322,-121 582,-160 46,-60 197,-28 239,-15l1182 0c20,0 64,3 81,2 64,-4 41,15 58,-39 -4,-26 -137,-262 -183,-385 -229,-618 -93,-1290 297,-1781 42,-53 88,-115 132,-161 58,-60 95,-91 146,-146 116,-125 479,-410 708,-455 32,93 199,321 191,402 -7,16 -232,121 -321,180 -285,189 -563,488 -688,839 -206,581 52,1083 443,1476 304,306 855,655 1474,401 705,-291 948,-988 995,-1041 25,-26 271,-9 345,-9l2540 0 3 -4404 -9703 0 0 9498 9700 0 0 -3341z"/>
   <path class="fil1" d="M19259 2745c-59,45 -132,105 -184,158 -34,34 -48,54 -89,83 -151,106 -335,304 -533,464 -79,65 -295,293 -425,398 -141,114 -238,221 -349,314l-1137 1028c-73,45 -237,161 -245,248 -13,138 0,2131 0,2325l0 7650c8,62 -9,21 32,61 22,22 29,23 44,36l262 230c35,29 54,52 86,86l258 234c64,57 113,100 177,155 103,88 249,254 346,318 137,89 233,212 351,312l352 312c77,77 359,343 442,396l256 235c54,55 115,106 175,157 45,39 135,132 183,158l-2 -15358z"/>
   <path class="fil1" d="M1707 18132c76,-61 124,-108 191,-176 60,-62 122,-113 184,-174l381 -350c42,-34 51,-61 89,-96 40,-36 69,-53 103,-83l1667 -1588c74,-61 115,-115 182,-176 37,-34 177,-112 177,-183l0 -9655c0,-50 -116,-128 -181,-193l-699 -667c-24,-20 -30,-21 -53,-42 -60,-55 -111,-121 -177,-182 -129,-119 -250,-232 -373,-357l-740 -720c-61,-61 -132,-111 -197,-176 -63,-62 -117,-115 -179,-178 -55,-56 -328,-326 -377,-344l2 15340z"/>
   <path class="fil1" d="M15582 4683c121,-119 123,-166 207,-246l490 -559c27,-31 54,-64 79,-94l935 -1096c58,-68 101,-124 157,-189 149,-171 191,-190 351,-406l267 -308 -15203 -6c25,70 368,449 424,535 76,118 324,395 440,542 41,51 57,84 101,137l332 400c40,52 59,92 98,140l882 1071c66,97 10,81 174,79l2444 0c2607,0 5215,3 7822,0z"/>
   <path class="fil1" d="M5197 16300c-68,0 -69,18 -102,60l-761 938c-95,114 -181,215 -278,332l-279 346c-97,113 -183,219 -278,334l-205 258c-26,32 -43,49 -68,79 -49,59 -256,295 -271,343l15025 0c-53,-91 -93,-97 -149,-183l-587 -675c-31,-37 -42,-52 -71,-88l-1373 -1588c-24,-25 -53,-59 -74,-86 -35,-45 -19,-70 -78,-70l-10451 0z"/>
   <path class="fil2" d="M12448 10096c72,4 152,66 210,99 57,32 125,65 173,104 -34,248 -434,727 -615,897 -634,596 -1405,775 -2192,305 -147,-87 -324,-223 -424,-333l-180 -192c-39,-46 -117,-178 -166,-209 -17,54 6,35 -58,39 -17,1 -61,-2 -81,-2l-1182 0c-42,-13 -193,-45 -239,15 616,-20 1034,219 1434,569 36,32 55,60 92,93 134,119 304,376 338,399 17,-57 -2,-39 60,-43 19,-1 70,2 94,3 1859,12 3761,0 5621,0l0 -1753 -2540 0c-74,0 -320,-17 -345,9z"/>
   <path class="fil2" d="M7571 11354c-397,44 -671,293 -811,548 -507,927 662,2247 1664,2157 392,-36 672,-297 811,-545 512,-910 -666,-2270 -1664,-2160z"/>
   <path class="fil3" d="M7571 11354c998,-110 2176,1250 1664,2160 -139,248 -419,509 -811,545 -1002,90 -2171,-1230 -1664,-2157 140,-255 414,-504 811,-548zm1987 526c-34,-23 -204,-280 -338,-399 -37,-33 -56,-61 -92,-93 -400,-350 -818,-589 -1434,-569 -260,39 -367,57 -582,160 -468,222 -882,735 -964,1308 -131,924 551,1675 1027,1984 1473,957 3071,-437 2616,-1887 -29,-92 -66,-183 -107,-264l-100 -179c-25,-42 -21,-23 -26,-61z"/>
   <path class="fil3" d="M11441 7178c220,-330 810,-972 1329,-455 199,199 261,484 96,794 -74,138 -430,526 -511,569 -65,-43 -180,-171 -240,-229 -118,-114 -646,-615 -674,-679zm-657 120c28,55 557,563 650,655 113,110 217,211 330,321l1476 1459c200,194 150,202 364,-18 238,-244 238,-150 -100,-485 -89,-88 -178,-181 -278,-280 -86,-84 -536,-504 -564,-565 70,-72 122,-127 206,-203 77,-69 116,-130 215,-196 200,-135 392,-145 632,-43 262,111 847,546 1070,575l273 -284c39,-39 79,-52 72,-132 -486,-181 -891,-544 -1244,-662 -277,-92 -350,-44 -559,-12 137,-418 116,-733 -130,-1039 -178,-221 -522,-459 -964,-367 -346,73 -653,353 -827,526l-324 353c-92,116 -221,257 -298,397z"/>
   <path class="fil3" d="M9254 10767c49,31 127,163 166,209l180 192c100,110 277,246 424,333 787,470 1558,291 2192,-305 181,-170 581,-649 615,-897 -48,-39 -116,-72 -173,-104 -58,-33 -138,-95 -210,-99 -47,53 -290,750 -995,1041 -619,254 -1170,-95 -1474,-401 -391,-393 -649,-895 -443,-1476 125,-351 403,-650 688,-839 89,-59 314,-164 321,-180 8,-81 -159,-309 -191,-402 -229,45 -592,330 -708,455 -51,55 -88,86 -146,146 -44,46 -90,108 -132,161 -390,491 -526,1163 -297,1781 46,123 179,359 183,385z"/>
   <path class="fil2" d="M11441 7178c28,64 556,565 674,679 60,58 175,186 240,229 81,-43 437,-431 511,-569 165,-310 103,-595 -96,-794 -519,-517 -1109,125 -1329,455z"/>
  </g>
 </g>
</svg>
